<svg width="25" height="25" viewBox="0 0 25 25" fill="none" xmlns="http://www.w3.org/2000/svg">
<path d="M20.6971 3.89045C19.5724 2.77842 18.2361 1.89655 16.7647 1.29552C15.2934 0.694484 13.7161 0.386135 12.1236 0.388194C5.42751 0.388194 8.68951e-06 5.74201 8.68951e-06 12.3448C-0.00190057 13.9154 0.310835 15.4709 0.920253 16.9219C1.52967 18.373 2.42376 19.691 3.55117 20.8002C4.67582 21.9122 6.01221 22.7941 7.48354 23.3952C8.95486 23.9962 10.5321 24.3045 12.1247 24.3025C18.8208 24.3025 24.2483 18.9487 24.2483 12.3459C24.2502 10.7753 23.9374 9.2198 23.328 7.76876C22.7186 6.31772 21.8245 4.99971 20.6971 3.89045ZM12.1247 22.6999C6.33534 22.6999 1.62609 18.0544 1.62609 12.3459C1.62609 6.63734 6.33642 1.99188 12.1247 1.99188C17.9129 1.99188 22.6233 6.63734 22.6233 12.3459C22.6233 18.0544 17.9129 22.6999 12.1247 22.6999Z" fill="#1ABC9C"/>
<path d="M10.2971 14.8524L6.56934 11.1759L5.41992 12.3095L10.2971 17.1196L18.8034 8.73029L17.654 7.59668L10.2971 14.8524Z" fill="#1ABC9C"/>
</svg>
